<svg height="47.523" viewBox="0 0 106.497 47.523" width="106.497" xmlns="http://www.w3.org/2000/svg"><g fill="#0f1e5a"><path d="m313.371 301.3c2.889 0 5.548-1.859 5.548-4.787 0-2.966-2.242-4.981-5.547-4.981h-1.886a8.016 8.016 0 0 0 -8.083 8.315v10.525h-7.573v-10.5c0-5.866 5.99-10.5 13.211-10.5h5.293c5.442 0 12.024 1.767 12.024 7.137 0 5.473-6.029 7.137-12.026 7.137h-10.032v-2.346z" transform="translate(-264.081 -262.849)"/><path d="m67.855 26.527h7.573v20.996h-7.573z"/><path d="m586.73 300.54h-13.09a7.687 7.687 0 0 0 7.346 6.963h9.826v2.38h-11.959c-7.221 0-13.218-4.632-13.218-10.5s5.995-10.5 13.215-10.5h11.962v2.33h-9.828a7.691 7.691 0 0 0 -7.351 7.013h13.1z" transform="translate(-484.315 -262.449)"/><path d="m130.913 294.067c0 .844 1.008 1.6 2.8 2.091s4.085 1.064 6.419 1.63c4.608 1.117 9.463 2.6 9.463 6.06 0 3.873-6.975 6.5-16.447 6.5a36.181 36.181 0 0 1 -10.127-1.3l1.068-1.886c3.051 1.121 7.392 1.333 10.6 1.333 3.885 0 7.035-1.235 7.035-3.039 0-1.036-1.028-1.909-2.745-2.365-1.757-.465-4-1.041-6.291-1.554-4.517-1.014-9.282-2.348-9.282-5.977 0-3.488 5.046-6.216 14.357-6.216a30.637 30.637 0 0 1 9.949 1.474l-1.208 1.507a33.764 33.764 0 0 0 -8.987-1.108c-4.902.007-6.604 1.383-6.604 2.85z" transform="translate(-123.027 -262.829)"/></g><circle cx="10.416" cy="10.416" fill="#fff" r="10.416" transform="matrix(.16132823 -.98690081 .98690081 .16132823 59.679 20.559)"/><path d="m456.248 163.815a10.418 10.418 0 0 1 20.4-2.978 18.734 18.734 0 0 0 -2.84-3.312q-.306.125-.63.268a18.657 18.657 0 0 1 3.667 3.811 10.411 10.411 0 0 1 .224 1.727 18.381 18.381 0 0 0 -5.2-4.922q-.434.218-.884.465a18.282 18.282 0 0 1 6.1 4.993 10.556 10.556 0 0 1 -.091 1.333 17.278 17.278 0 0 0 -7.58-5.388q-.561.361-1.129.77a17.144 17.144 0 0 1 8.624 5.149 10.362 10.362 0 0 1 -.285 1.158 16.485 16.485 0 0 0 -10.124-4.889c-.429.376-.854.775-1.271 1.2h.166a16.388 16.388 0 0 1 11.033 4.253 10.327 10.327 0 0 1 -.478 1.088 15.77 15.77 0 0 0 -9.959-3.525 15.937 15.937 0 0 0 -2.517.2q-.61.791-1.168 1.674a15.791 15.791 0 0 1 13.31 2.256 10.407 10.407 0 0 1 -.734 1.074 15.175 15.175 0 0 0 -13.964-.751q-.438.965-.8 2.022a15.1 15.1 0 0 1 14.195-.6 10.416 10.416 0 0 1 -18.067-7.068z" fill="#c00" transform="translate(-395.025 -151.855)"/></svg>