<?xml version="1.0" encoding="UTF-8"?>
<svg width="162px" height="26px" viewBox="0 0 162 26" version="1.1" xmlns="http://www.w3.org/2000/svg" xmlns:xlink="http://www.w3.org/1999/xlink">
    <title>9E4E10FE-1BA7-4554-8F9D-4D54E5D19607</title>
    <g id="Logos" stroke="none" stroke-width="1" fill="none" fill-rule="evenodd">
        <g id="Logos-#2" transform="translate(-565.000000, -408.000000)">
            <g id="Cloud-Ouest" transform="translate(565.000000, 410.000000)">
                <path d="M55.329,19.21 C56.491,19.21 57.499,18.993 58.353,18.559 C59.207,18.125 59.837,17.509 60.243,16.711 L60.243,16.711 L58.731,15.346 C58.003,16.494 56.862,17.068 55.308,17.068 C54.034,17.068 53.054,16.599 52.368,15.661 C51.682,14.723 51.339,13.386 51.339,11.65 C51.339,9.9 51.689,8.5595 52.389,7.6285 C53.089,6.6975 54.09,6.232 55.392,6.232 C56.862,6.232 57.975,6.799 58.731,7.933 L58.731,7.933 L60.243,6.568 C59.837,5.784 59.207,5.175 58.353,4.741 C57.499,4.307 56.505,4.09 55.371,4.09 C54.013,4.09 52.83,4.398 51.822,5.014 C50.814,5.63 50.037,6.505 49.491,7.639 C48.945,8.773 48.672,10.11 48.672,11.65 C48.672,13.176 48.945,14.5095 49.491,15.6505 C50.037,16.7915 50.8105,17.67 51.8115,18.286 C52.8125,18.902 53.985,19.21 55.329,19.21 Z M64.653,19.21 C65.577,19.21 66.34,18.993 66.942,18.559 L66.942,18.559 L66.585,17.236 C66.165,17.418 65.78,17.509 65.43,17.509 C65.08,17.509 64.828,17.4285 64.674,17.2675 C64.52,17.1065 64.443,16.837 64.443,16.459 L64.443,16.459 L64.443,3.418 L62.049,3.418 L62.049,16.438 C62.049,17.348 62.2695,18.0375 62.7105,18.5065 C63.1515,18.9755 63.799,19.21 64.653,19.21 Z M73.032,19.21 C74.684,19.21 75.9825,18.7235 76.9275,17.7505 C77.8725,16.7775 78.345,15.444 78.345,13.75 C78.345,12.056 77.8725,10.7225 76.9275,9.7495 C75.9825,8.7765 74.684,8.29 73.032,8.29 C71.38,8.29 70.0815,8.7765 69.1365,9.7495 C68.1915,10.7225 67.719,12.056 67.719,13.75 C67.719,15.444 68.1915,16.7775 69.1365,17.7505 C70.0815,18.7235 71.38,19.21 73.032,19.21 Z M73.032,17.425 C72.122,17.425 71.408,17.0995 70.89,16.4485 C70.372,15.7975 70.113,14.898 70.113,13.75 C70.113,12.602 70.372,11.7025 70.89,11.0515 C71.408,10.4005 72.122,10.075 73.032,10.075 C73.942,10.075 74.656,10.4005 75.174,11.0515 C75.692,11.7025 75.951,12.602 75.951,13.75 C75.951,14.898 75.692,15.7975 75.174,16.4485 C74.656,17.0995 73.942,17.425 73.032,17.425 Z M83.805,19.21 C84.603,19.21 85.3135,19.0245 85.9365,18.6535 C86.5595,18.2825 87.011,17.782 87.291,17.152 L87.291,17.152 L87.354,17.152 C87.354,17.712 87.417,18.328 87.543,19 L87.543,19 L89.79,19 C89.664,18.09 89.601,17.25 89.601,16.48 L89.601,16.48 L89.601,8.5 L87.228,8.5 L87.228,14.128 C87.228,15.024 86.9725,15.773 86.4615,16.375 C85.9505,16.977 85.296,17.278 84.498,17.278 C83.826,17.278 83.329,17.0505 83.007,16.5955 C82.685,16.1405 82.524,15.437 82.524,14.485 L82.524,14.485 L82.524,8.5 L80.151,8.5 L80.151,14.464 C80.151,16.032 80.459,17.215 81.075,18.013 C81.691,18.811 82.601,19.21 83.805,19.21 Z M95.796,19.21 C96.426,19.21 97.0315,19.0525 97.6125,18.7375 C98.1935,18.4225 98.645,18.013 98.967,17.509 L98.967,17.509 L99.009,17.509 C99.009,18.223 99.023,18.72 99.051,19 L99.051,19 L101.277,19 C101.235,18.58 101.214,17.663 101.214,16.249 L101.214,3.418 L98.841,3.418 L98.841,9.676 L98.799,9.676 C98.085,8.752 97.105,8.29 95.859,8.29 C94.949,8.29 94.158,8.507 93.486,8.941 C92.814,9.375 92.296,9.9875 91.932,10.7785 C91.568,11.5695 91.386,12.497 91.386,13.561 C91.386,15.311 91.778,16.69 92.562,17.698 C93.346,18.706 94.424,19.21 95.796,19.21 Z M96.237,17.362 C95.453,17.362 94.844,17.033 94.41,16.375 C93.976,15.717 93.759,14.793 93.759,13.603 C93.759,12.483 93.9725,11.615 94.3995,10.999 C94.8265,10.383 95.439,10.075 96.237,10.075 C96.993,10.075 97.6125,10.3235 98.0955,10.8205 C98.5785,11.3175 98.82,11.951 98.82,12.721 L98.82,12.721 L98.82,14.8 C98.82,15.584 98.5855,16.207 98.1165,16.669 C97.6475,17.131 97.021,17.362 96.237,17.362 Z M114.507,19.21 C115.837,19.21 116.9885,18.9055 117.9615,18.2965 C118.9345,17.6875 119.68,16.816 120.198,15.682 C120.716,14.548 120.975,13.204 120.975,11.65 C120.975,10.096 120.716,8.752 120.198,7.618 C119.68,6.484 118.9345,5.6125 117.9615,5.0035 C116.9885,4.3945 115.837,4.09 114.507,4.09 C113.177,4.09 112.022,4.3945 111.042,5.0035 C110.062,5.6125 109.313,6.484 108.795,7.618 C108.277,8.752 108.018,10.096 108.018,11.65 C108.018,13.204 108.277,14.548 108.795,15.682 C109.313,16.816 110.062,17.6875 111.042,18.2965 C112.022,18.9055 113.177,19.21 114.507,19.21 Z M114.507,17.089 C113.317,17.089 112.3825,16.606 111.7035,15.64 C111.0245,14.674 110.685,13.344 110.685,11.65 C110.685,9.956 111.0245,8.6225 111.7035,7.6495 C112.3825,6.6765 113.317,6.19 114.507,6.19 C115.683,6.19 116.6105,6.6765 117.2895,7.6495 C117.9685,8.6225 118.308,9.956 118.308,11.65 C118.308,13.344 117.9685,14.674 117.2895,15.64 C116.6105,16.606 115.683,17.089 114.507,17.089 Z M126.414,19.21 C127.212,19.21 127.9225,19.0245 128.5455,18.6535 C129.1685,18.2825 129.62,17.782 129.9,17.152 L129.9,17.152 L129.963,17.152 C129.963,17.712 130.026,18.328 130.152,19 L130.152,19 L132.399,19 C132.273,18.09 132.21,17.25 132.21,16.48 L132.21,16.48 L132.21,8.5 L129.837,8.5 L129.837,14.128 C129.837,15.024 129.5815,15.773 129.0705,16.375 C128.5595,16.977 127.905,17.278 127.107,17.278 C126.435,17.278 125.938,17.0505 125.616,16.5955 C125.294,16.1405 125.133,15.437 125.133,14.485 L125.133,14.485 L125.133,8.5 L122.76,8.5 L122.76,14.464 C122.76,16.032 123.068,17.215 123.684,18.013 C124.3,18.811 125.21,19.21 126.414,19.21 Z M139.161,19.21 C140.099,19.21 140.9635,19.014 141.7545,18.622 C142.5455,18.23 143.144,17.705 143.55,17.047 L143.55,17.047 L142.248,15.808 C141.842,16.284 141.401,16.634 140.925,16.858 C140.449,17.082 139.903,17.194 139.287,17.194 C137.663,17.194 136.732,16.34 136.494,14.632 L136.494,14.632 L143.886,14.632 L143.886,13.75 C143.886,12.042 143.466,10.705 142.626,9.739 C141.786,8.773 140.617,8.29 139.119,8.29 C137.551,8.29 136.3155,8.7765 135.4125,9.7495 C134.5095,10.7225 134.058,12.063 134.058,13.771 C134.058,15.479 134.506,16.8125 135.402,17.7715 C136.298,18.7305 137.551,19.21 139.161,19.21 Z M141.597,12.973 L136.473,12.973 C136.585,12.105 136.8615,11.4295 137.3025,10.9465 C137.7435,10.4635 138.328,10.222 139.056,10.222 C139.854,10.222 140.477,10.453 140.925,10.915 C141.373,11.377 141.597,12.021 141.597,12.847 L141.597,12.847 L141.597,12.973 Z M148.926,19.21 C150.172,19.21 151.173,18.902 151.929,18.286 C152.685,17.67 153.063,16.858 153.063,15.85 C153.063,15.108 152.839,14.506 152.391,14.044 C151.943,13.582 151.131,13.12 149.955,12.658 C149.339,12.42 148.8805,12.224 148.5795,12.07 C148.2785,11.916 148.072,11.7655 147.96,11.6185 C147.848,11.4715 147.792,11.286 147.792,11.062 C147.792,10.754 147.925,10.5125 148.191,10.3375 C148.457,10.1625 148.814,10.075 149.262,10.075 C149.682,10.075 150.067,10.159 150.417,10.327 C150.767,10.495 151.054,10.733 151.278,11.041 L151.278,11.041 L152.685,9.991 C152.335,9.445 151.8555,9.025 151.2465,8.731 C150.6375,8.437 149.948,8.29 149.178,8.29 C148.044,8.29 147.134,8.549 146.448,9.067 C145.762,9.585 145.419,10.271 145.419,11.125 C145.419,11.853 145.6745,12.462 146.1855,12.952 C146.6965,13.442 147.575,13.925 148.821,14.401 C149.577,14.695 150.0775,14.947 150.3225,15.157 C150.5675,15.367 150.69,15.633 150.69,15.955 C150.69,16.389 150.522,16.7425 150.186,17.0155 C149.85,17.2885 149.43,17.425 148.926,17.425 C148.478,17.425 148.0545,17.32 147.6555,17.11 C147.2565,16.9 146.938,16.613 146.7,16.249 L146.7,16.249 L145.188,17.278 C145.468,17.866 145.944,18.335 146.616,18.685 C147.288,19.035 148.058,19.21 148.926,19.21 Z M159.09,19.21 C160.14,19.21 160.952,19.077 161.526,18.811 L161.526,18.811 L161.4,17.131 C161.008,17.299 160.504,17.383 159.888,17.383 C159.314,17.383 158.8905,17.2325 158.6175,16.9315 C158.3445,16.6305 158.208,16.165 158.208,15.535 L158.208,15.535 L158.208,10.285 L161.232,10.285 L161.232,8.5 L158.208,8.5 L158.208,5.077 L158.124,5.077 L155.814,5.77 L155.814,8.5 L153.924,8.5 L153.924,10.285 L155.814,10.285 L155.814,15.85 C155.814,16.9 156.1045,17.7225 156.6855,18.3175 C157.2665,18.9125 158.068,19.21 159.09,19.21 Z" id="CloudOuest" fill="#1B1B1B" fill-rule="nonzero"></path>
                <g id="Group-12">
                    <path d="M3.95422512,20.044501 C5.17749328,21.252025 6.87441197,22 8.75,22 C10.6203747,21.9977958 12.5357189,21.9977958 14.4960327,22 L26.5014038,22 L31.25,22 C34.9779221,22 38,19.0450793 38,15.4 C38,11.7549207 35.7385056,8.8 31.25,8.8 C31.0151672,8.81812744 31.1320343,8.80684814 31.029533,8.82214865 C29.9959455,3.79018908 25.4506554,0 20,0 C14.5504349,0 8.97108764,3.73322495 8.97108764,8.81912924 C8.97108764,8.82214865 8.97108764,8.8 8.75,8.8 C6.91227936,8.8 5.24608638,9.51807724 4.02889383,10.682925" id="Path" stroke="#C3C3C3" stroke-width="3" stroke-linecap="round"></path>
                    <circle id="Oval" fill="#1B1B1B" cx="2" cy="15.5" r="1.5"></circle>
                </g>
            </g>
        </g>
    </g>
</svg>